# xmcd
#
# Track frame offsets:
#	150
#	3180
#	20940
#	38292
#	51869
#	71883
#	83676
#	95761
#	113683
#	128253
#	140497
#	156720
#	171017
#	184710
#	203308
#	216843
#
# Disc length: 3176 seconds
#
# Revision: 1
# Processed by: cddbd v1.5.2PL0 Copyright (c) Steve Scherf et al.
# Submitted via: EZCDAudioConverter 8.2.2.1
#
DISCID=d10c6610
DTITLE=ZEZÉ DI CAMARGO and LUCIANO - ESTRADA DO AMOR [CD 88697408532) SONY MUSIC
DYEAR=2008
DGENRE=country
TTITLE0=INTRODUÇÃO - TEXTO (BY GILMAR SINISTRO)
TTITLE1=A DISTÂNCIA (BY GILMAR SINISTRO)
TTITLE2=O QUE VAI SER DE NÓS (BY GILMAR SINISTRO)
TTITLE3=NÓIS NAMORA (BY GILMAR SINISTRO)
TTITLE4=NÃO QUERO TE PERDER (BY GILMAR SINISTRO)
TTITLE5=ESTRADA DO AMOR (BY GILMAR SINISTRO)
TTITLE6=FAÇA ALGUMA COISA (BY GILMAR SINISTRO)
TTITLE7=NUNCA AMEI ASSIM (BY GILMAR SINISTRO)
TTITLE8=VALEU DEMAIS (BY GILMAR SINISTRO)
TTITLE9=PELOS BOTECOS DO BRASIL (BY GILMAR SINISTRO)
TTITLE10=AGORA (BY GILMAR SINISTRO)
TTITLE11=O MELHOR É DAR UM TEMPO (BY GILMAR SINISTRO)
TTITLE12=VIDA BOA (BY GILMAR SINISTRO)
TTITLE13=AMOR CORRESPONDIDO (BY GILMAR SINISTRO)
TTITLE14=PRISIONEIRO DA SAUDADE (BY GILMAR SINISTRO)
TTITLE15=É O AMOR ( INSTRUMENTAL) BONUS TRACK (BY GILMAR SINISTRO)
EXTD=
EXTT0=
EXTT1=
EXTT2=
EXTT3=
EXTT4=
EXTT5=
EXTT6=
EXTT7=
EXTT8=
EXTT9=
EXTT10=
EXTT11=
EXTT12=
EXTT13=
EXTT14=
EXTT15=
PLAYORDER=
